<svg xmlns="http://www.w3.org/2000/svg" viewBox="0 0 32 32" width="32" height="32">
  <!-- Background circle with gradient -->
  <defs>
    <radialGradient id="bg" cx="0.3" cy="0.3">
      <stop offset="0%" stop-color="#ff8a80"/>
      <stop offset="100%" stop-color="#ff5722"/>
    </radialGradient>
  </defs>
  
  <circle cx="16" cy="16" r="15" fill="url(#bg)" stroke="#fff" stroke-width="1"/>
  
  <!-- Plate -->
  <circle cx="16" cy="16" r="10" fill="#fff" stroke="#ddd" stroke-width="0.5"/>
  <circle cx="16" cy="16" r="9" fill="#f8f8f8"/>
  
  <!-- Food items (like emoji) -->
  <!-- Piece of meat/steak -->
  <ellipse cx="13" cy="14" rx="3" ry="2" fill="#8d4004"/>
  <ellipse cx="13" cy="14" rx="2.5" ry="1.5" fill="#a0522d"/>
  
  <!-- Vegetables -->
  <circle cx="19" cy="12" r="1.2" fill="#4caf50"/>
  <circle cx="20" cy="14" r="0.8" fill="#81c784"/>
  <circle cx="18" cy="15" r="0.9" fill="#66bb6a"/>
  
  <!-- Dice in corner -->
  <g transform="translate(23, 6)">
    <rect x="0" y="0" width="6" height="6" rx="1" fill="#fff" stroke="#333" stroke-width="0.3"/>
    <!-- Dice dots for number 5 -->
    <circle cx="1.5" cy="1.5" r="0.4" fill="#333"/>
    <circle cx="4.5" cy="1.5" r="0.4" fill="#333"/>
    <circle cx="3" cy="3" r="0.4" fill="#333"/>
    <circle cx="1.5" cy="4.5" r="0.4" fill="#333"/>
    <circle cx="4.5" cy="4.5" r="0.4" fill="#333"/>
  </g>
  
  <!-- Cute Fork (left side) -->
  <g transform="translate(5, 20)">
    <!-- Fork handle -->
    <ellipse cx="2" cy="6" rx="1.2" ry="3" fill="#ff9800"/>
    <ellipse cx="2" cy="6" rx="0.8" ry="2.5" fill="#ffb74d"/>
    <!-- Fork prongs (more rounded and cute) -->
    <circle cx="1" cy="1.5" r="0.6" fill="#666"/>
    <circle cx="2" cy="1" r="0.6" fill="#666"/>
    <circle cx="3" cy="1.5" r="0.6" fill="#666"/>
    <ellipse cx="1" cy="3" rx="0.4" ry="1.5" fill="#666"/>
    <ellipse cx="2" cy="2.5" rx="0.4" ry="2" fill="#666"/>
    <ellipse cx="3" cy="3" rx="0.4" ry="1.5" fill="#666"/>
  </g>
  
  <!-- Cute Knife (right side) -->
  <g transform="translate(24, 20)">
    <!-- Knife handle -->
    <ellipse cx="2" cy="6" rx="1.2" ry="3" fill="#795548"/>
    <ellipse cx="2" cy="6" rx="0.8" ry="2.5" fill="#8d6e63"/>
    <!-- Knife blade (rounded and cute) -->
    <ellipse cx="2" cy="2" rx="0.8" ry="2.5" fill="#e0e0e0"/>
    <ellipse cx="2" cy="2" rx="0.5" ry="2" fill="#f5f5f5"/>
    <!-- Cute shine on blade -->
    <ellipse cx="1.5" cy="1.5" rx="0.2" ry="0.8" fill="#fff"/>
  </g>
  
  <!-- Sparkles for "random" effect -->
  <g fill="#ffd700">
    <polygon points="5,8 5.5,9.5 7,10 5.5,10.5 5,12 4.5,10.5 3,10 4.5,9.5" transform="scale(0.4)"/>
    <polygon points="26,20 26.5,21.5 28,22 26.5,22.5 26,24 25.5,22.5 24,22 25.5,21.5" transform="scale(0.3)"/>
  </g>
</svg>